<?xml version="1.0" encoding="iso-8859-1"?>
<!-- Uploaded to: SVG Repo, www.svgrepo.com, Generator: SVG Repo Mixer Tools -->
<!DOCTYPE svg PUBLIC "-//W3C//DTD SVG 1.1//EN" "http://www.w3.org/Graphics/SVG/1.1/DTD/svg11.dtd">
<svg fill="white" width="26px" height="18px" version="1.1" id="Capa_1" xmlns="http://www.w3.org/2000/svg" xmlns:xlink="http://www.w3.org/1999/xlink" 
	 viewBox="0 0 512 512" xml:space="preserve">
<path d="M256,0C114.613,0,0,114.617,0,256c0,141.391,114.613,256,256,256s256-114.609,256-256C512,114.617,397.387,0,256,0z
	 M256,384c-17.674,0-32-14.32-32-32c0-17.672,14.326-32,32-32s32,14.328,32,32C288,369.68,273.674,384,256,384z M280.438,251.172
	c-5.047,2.078-8.438,7.75-8.438,14.109V272c0,8.844-7.156,16-16,16c-8.844,0-16-7.156-16-16v-6.719
	c0-19.453,11.078-36.609,28.219-43.688c14-5.797,21.922-20.391,19.25-35.516c-2.203-12.594-12.953-23.344-25.531-25.547
	c-9.75-1.719-19.141,0.766-26.5,6.953C228.172,173.594,224,182.531,224,192c0,8.844-7.156,16-16,16c-8.844,0-16-7.156-16-16
	c0-18.953,8.328-36.828,22.859-49.031c14.516-12.188,33.656-17.266,52.609-13.953c25.813,4.531,47,25.719,51.531,51.531
	C324.266,210.547,308.422,239.594,280.438,251.172z"/>
</svg>