<?xml version="1.0" encoding="iso-8859-1"?>
<!-- Uploaded to: SVG Repo, www.svgrepo.com, Generator: SVG Repo Mixer Tools -->
<!DOCTYPE svg PUBLIC "-//W3C//DTD SVG 1.1//EN" "http://www.w3.org/Graphics/SVG/1.1/DTD/svg11.dtd">
<svg fill="white" height="24px" width="24px" version="1.1" id="Capa_1" xmlns="http://www.w3.org/2000/svg" xmlns:xlink="http://www.w3.org/1999/xlink" 
	 viewBox="0 0 296.906 296.906" xml:space="preserve">
<g>
	<path d="M65.486,185.302c-0.185-0.184-0.362-0.374-0.546-0.559l-23.798,83.136c-1.514,5.288,1.651,8.685,7.032,7.549l29.481-6.222
		c0.391-0.082,0.796-0.143,1.208-0.19l17.442-61.512C85.043,201.905,74.641,194.456,65.486,185.302z"/>
	<path d="M93.313,273.043c0.455,0.347,0.89,0.706,1.278,1.086l20.992,20.518c3.934,3.844,8.39,2.663,9.903-2.625l20.719-72.381
		c-12.417-0.231-24.516-2.384-35.959-6.313L93.313,273.043z"/>
	<path d="M150.7,219.641l20.719,72.381c1.514,5.288,5.97,6.469,9.903,2.625l20.992-20.518c0.35-0.342,0.737-0.666,1.142-0.98
		l-16.812-59.815C175.206,217.258,163.112,219.409,150.7,219.641z"/>
	<path d="M231.966,184.742c-0.184,0.186-0.361,0.375-0.546,0.559c-9.156,9.156-19.563,16.607-30.83,22.206L217.872,269
		c0.471,0.049,0.935,0.111,1.378,0.205l29.481,6.222c5.381,1.136,8.546-2.261,7.032-7.549L231.966,184.742z"/>
	<path d="M250.786,102.334C250.786,45.816,204.97,0,148.452,0C91.936,0,46.12,45.816,46.12,102.334
		c0,56.518,45.816,102.334,102.332,102.334C204.97,204.668,250.786,158.852,250.786,102.334z M148.452,183.961
		c-45.008,0-81.625-36.617-81.625-81.627c0-45.01,36.617-81.627,81.625-81.627c45.01,0,81.627,36.617,81.627,81.627
		C230.079,147.344,193.462,183.961,148.452,183.961z"/>
	<path d="M148.452,168.961c36.738,0,66.627-29.889,66.627-66.627c0-36.738-29.889-66.627-66.627-66.627
		c-36.736,0-66.625,29.889-66.625,66.627C81.827,139.072,111.716,168.961,148.452,168.961z"/>
</g>
</svg>